<svg xmlns="http://www.w3.org/2000/svg" viewBox="0 0 485.28 485.28"><title>Asset 1</title><g id="Layer_2" data-name="Layer 2"><g id="Layer_1-2" data-name="Layer 1"><rect width="485.28" height="485.28" style="fill:none"/><path d="M155.17,72.42c35-15.35,55.22-30.87,60.34-34.88a247.71,247.71,0,0,0,27.17-24.73c13,14.82,28.94,26.8,45.47,37.43,40.93,25.84,87.71,41.41,135.3,49.23q.07,40.08,0,80.16c-.2,18.33.76,36.72-1.35,55-5.77,57-29.43,112.59-68.73,154.57A231.35,231.35,0,0,1,317,420.9q-37.08,25.82-74.2,51.58c-26.87-18.77-54-37.22-80.66-56.23-31.56-23.81-56.71-55.71-73.64-91.36-18.21-38-27-80.21-26.77-122.26q0-51.58,0-103.16A376.16,376.16,0,0,0,155.17,72.42ZM80.24,114.84c.12,26.26,0,52.52,0,78.78.08,9-.28,18,.36,26.94a259.51,259.51,0,0,0,25.86,99.35,79.19,79.19,0,0,0,51.32,42.3,77.9,77.9,0,0,0,45-1.5c18-6.45,35.31-15.46,50-27.89-12.2,17.67-29.12,31.68-47.34,42.83,3.21-1.09,6.32-2.45,9.44-3.8,31.87-14,62-32.54,87.18-56.69-2.7,8.06-7.27,15.37-12.5,22-9.09,11.71-20.38,21.46-32,30.56a204.86,204.86,0,0,0,29.94-15.3c12.88-8,25.33-17.46,34.07-30.05,6.33-9.1,10.21-20.41,8.56-31.57-1.62-12.6-8.4-23.95-17.12-33,12.08-2.79,24.83-3.23,36.91-.18-3.87-12.17-12.35-22.25-22-30.32,4.23.14,8.47.37,12.72.3-9.77-12.28-21.91-22.9-36.07-29.8-12.65-6.15-26.9-9.61-41-8.39a104.93,104.93,0,0,1,54.61,32.25,62.25,62.25,0,0,0-30.87-3.57c18.62,1.68,34.39,13.68,46.54,27.12-17.91-1.61-37.08,1.57-51.52,12.92-14.15,10.87-22.81,27.52-26.92,44.61-1.57,6.71,1.39,13.62,6.54,17.95-12.91-.58-23.68-8.42-34.17-15.1-2.37-1.65-3-4.92-5.66-6.26-5.1-3-10-6.37-14.79-9.82,5.42,1.06,11,2.2,16.52,1.07,10.07-1.7,18.21-8.62,24.89-15.94a20.67,20.67,0,0,0,2.78-22.78c-5.36-10.91-16.7-17.24-27.78-21-10.14-3.75-21.46-2.61-31.43,1.08-14.53,5.33-27.16,14.76-38.32,25.31,8.9,20.85,28.53,34.91,49,43.11-22-1.94-42.8-10.79-61.22-22.61-3.21-1.9-5.88-4.86-9.63-5.71-9.13-2.69-16-9.76-22.6-16.19a16.25,16.25,0,0,1-6.58-8.53c.69-2.81,2.41-5.25,3.69-7.82,9.21-16.44,21.3-31.12,34.53-44.47-.29-10.36,4.38-20.95,13-26.89,21.57-14.74,43.79-28.52,66.19-42a18.73,18.73,0,0,0,4.17-3.83c8.81-9.82,18.06-19.22,27.62-28.31,1.07-.68,1.9-2.48,3.29-2.27a55,55,0,0,1,10.38,16.7c15.69-7.83,31.33-15.75,47.07-23.47-7-4-14.4-7.18-21.31-11.32A278.17,278.17,0,0,1,242.86,39.1C197.29,79.26,139.33,103,80.24,114.84Zm74.23,75.71c6.64-1.05,13.28-2.19,19.93-3.24,2-6.16,4.1-12.3,6.12-18.46Q167.47,179.67,154.47,190.55Z" style="fill:#2C7BE5"/></g></g></svg>